<?xml version="1.0"?>
<svg xmlns="http://www.w3.org/2000/svg" height="512px" viewBox="0 -29 511.9987 511" width="512px" style="user-select: auto;"><g style="user-select: auto;"><path d="m506.453125 152.199219-399.8125-149.003907c-22.078125-8.226562-46.648437 3-54.878906 25.082032l-23.835938 63.957031-.003906.007813v.011718l-11.917969 31.980469-11.921875 31.980469c-8.199219 22.078125 3.019531 46.628906 25.082031 54.878906l2.230469.832031-1.671875 47.785157c-.132812 3.671874 2.101563 7.011718 5.542969 8.296874l7.878906 2.933594c-.289062 1.875-.449219 3.765625-.476562 5.660156.027343 9.144532 3.019531 18.035157 8.53125 25.335938v48.429688c-.003907 4.710937-3.820313 8.527343-8.53125 8.535156h-25.601563v-34.132813c0-4.714843-3.820312-8.535156-8.53125-8.535156-4.714844 0-8.535156 3.820313-8.535156 8.535156v119.464844c0 4.714844 3.820312 8.535156 8.535156 8.535156 4.710938 0 8.53125-3.820312 8.53125-8.535156v-34.132813h42.667969c23.550781-.027343 42.636719-19.113281 42.664063-42.667968v-51.78125c7.585937-3.300782 14.019531-8.777344 18.496093-15.730469l10.328125 3.851563c3.441406 1.28125 7.316406.214843 9.621094-2.644532l30.011719-37.230468 178.144531 66.394531c6.363281 2.371093 13.40625 2.117187 19.582031-.703125 6.175781-2.824219 10.976563-7.984375 13.347657-14.347656l1.421874-3.808594c1.554688.082031 3.125.308594 4.664063.308594 26.675781-.078126 51.777344-12.636719 67.832031-33.9375 16.054688-21.300782 21.21875-48.886719 13.949219-74.550782l39.484375-36.816406c2.164062-2.015625 3.128906-5.007812 2.554688-7.910156-.578126-2.898438-2.617188-5.292969-5.386719-6.328125zm-421.121094 215.234375c-.015625 14.132812-11.464843 25.585937-25.597656 25.601562h-42.667969v-17.066406h25.601563c14.128906-.015625 25.582031-11.46875 25.597656-25.601562v-34.714844c5.378906 2.375 11.1875 3.609375 17.066406 3.617187zm0-65.230469c-13.902343-.027344-25.246093-11.148437-25.542969-25.050781l44.476563 16.578125c-4.804687 5.402343-11.699219 8.488281-18.933594 8.472656zm46.089844-16.574219-11.351563-4.226562-.03125-.023438-.046874-.007812-73-27.207032 1.257812-35.953124 105.75 39.410156zm234.519531 23.660156c-1.660156 4.402344-6.5625 6.644532-10.980468 5.015626l-319.839844-119.203126c-13.234375-4.953124-19.964844-19.683593-15.046875-32.929687l8.9375-23.988281 175.914062 65.5625 175.917969 65.5625zm85.765625-59.101562c-9.835937 25.972656-34.320312 43.484375-62.078125 44.40625l9.476563-25.429688 56.164062-52.367187c1.625 11.253906.398438 22.734375-3.5625 33.390625zm-61.851562 4.265625-26.070313-9.714844-328.808594-122.546875 5.957032-15.988281 287.863281 107.28125c2.867187 1.109375 6.109375.59375 8.488281-1.355469 2.378906-1.949218 3.523438-5.027344 3-8.054687-.523437-3.03125-2.636718-5.542969-5.53125-6.582031l-287.859375-107.28125 20.859375-55.976563c4.957032-13.230469 19.683594-19.960937 32.929688-15.046875l386.867187 144.179688zm0 0" data-original="#000000" class="active-path" style="user-select: auto;" data-old_color="#000000" fill="#26A7BE"/><path d="m360.773438 225.402344 7.996093 2.984375c2.859375 1.066406 6.066407.527343 8.417969-1.414063 2.351562-1.9375 3.488281-4.988281 2.984375-7.992187-.507813-3.007813-2.578125-5.519531-5.433594-6.582031l-7.996093-2.988282c-2.859376-1.066406-6.066407-.527344-8.417969 1.414063-2.351563 1.941406-3.488281 4.988281-2.984375 7.996093.507812 3.007813 2.578125 5.515626 5.433594 6.582032zm0 0" data-original="#000000" class="active-path" data-old_color="#000000" style="user-select: auto;" fill="#26A7BE"/></g> </svg>
