<?xml version="1.0"?>
<svg xmlns="http://www.w3.org/2000/svg" xmlns:xlink="http://www.w3.org/1999/xlink" xmlns:svgjs="http://svgjs.com/svgjs" version="1.1" width="512" height="512" x="0" y="0" viewBox="0 0 512 512" style="user-select: auto;" xml:space="preserve" class=""><g style="user-select: auto;">
<g xmlns="http://www.w3.org/2000/svg" style="user-select: auto;">
	<g style="user-select: auto;">
		<g style="user-select: auto;">
			<path d="M145.067,110.933H25.6c-14.114,0-25.6,11.486-25.6,25.6v102.4v51.2v85.333c0,14.114,11.486,25.6,25.6,25.6h119.467     c14.114,0,25.6-11.486,25.6-25.6v-85.333v-51.2v-102.4C170.667,122.419,159.181,110.933,145.067,110.933z M25.6,128h119.467     c4.702,0,8.533,3.823,8.533,8.533V230.4H17.067v-93.867C17.067,131.823,20.898,128,25.6,128z M153.6,281.6H17.067v-34.133H153.6     V281.6z M145.067,384H25.6c-4.702,0-8.533-3.823-8.533-8.533v-76.8H153.6v76.8C153.6,380.177,149.769,384,145.067,384z" fill="#7f8e93" data-original="#000000" style="user-select: auto;" class=""/>
			<path d="M486.4,110.933h-256c-14.114,0-25.6,11.486-25.6,25.6V307.2v17.067c0,14.114,11.486,25.6,25.6,25.6h60.854     l-15.062,22.588c-3.772,5.666-4.122,12.902-0.913,18.893c3.209,5.99,9.429,9.719,16.222,9.719h133.888     c6.775,0,12.979-3.721,16.179-9.694c3.2-5.982,2.85-13.201-0.913-18.842l-15.108-22.665H486.4c14.114,0,25.6-11.486,25.6-25.6     V307.2V136.533C512,122.419,500.514,110.933,486.4,110.933z M221.867,136.533c0-4.71,3.831-8.533,8.533-8.533h256     c4.702,0,8.533,3.823,8.533,8.533v162.133H221.867V136.533z M426.455,382.003c0.111,0.154,0.427,0.64,0.068,1.314     C426.156,384,425.576,384,425.388,384H291.5c-0.196,0-0.794,0-1.178-0.708c-0.375-0.7-0.043-1.203,0.068-1.365l21.376-32.06     h93.269L426.455,382.003z M494.933,324.267c0,4.71-3.831,8.533-8.533,8.533h-76.798h-102.4H230.4     c-4.702,0-8.533-3.823-8.533-8.533v-8.533h273.067V324.267z" fill="#7f8e93" data-original="#000000" style="user-select: auto;" class=""/>
			<path d="M42.667,196.267H128c4.71,0,8.533-3.814,8.533-8.533V153.6c0-4.719-3.823-8.533-8.533-8.533H42.667     c-4.71,0-8.533,3.814-8.533,8.533v34.133C34.133,192.452,37.956,196.267,42.667,196.267z M51.2,162.133h68.267V179.2H51.2     V162.133z" fill="#7f8e93" data-original="#000000" style="user-select: auto;" class=""/>
			<path d="M51.2,341.333c-4.71,0-8.533,3.814-8.533,8.533c0,4.719,3.823,8.533,8.533,8.533s8.533-3.814,8.533-8.533     C59.733,345.148,55.91,341.333,51.2,341.333z" fill="#7f8e93" data-original="#000000" style="user-select: auto;" class=""/>
			<path d="M119.467,341.333c-4.71,0-8.533,3.814-8.533,8.533c0,4.719,3.823,8.533,8.533,8.533s8.533-3.814,8.533-8.533     C128,345.148,124.177,341.333,119.467,341.333z" fill="#7f8e93" data-original="#000000" style="user-select: auto;" class=""/>
			<path d="M320.853,172.373c-3.772-2.825-9.122-2.065-11.947,1.707l-25.6,34.133c-2.278,3.038-2.278,7.202,0,10.24l25.6,34.133     c1.681,2.236,4.241,3.413,6.835,3.413c1.775,0,3.575-0.555,5.111-1.707c3.772-2.825,4.531-8.175,1.707-11.947l-21.76-29.013     l21.76-29.013C325.385,180.548,324.625,175.198,320.853,172.373z" fill="#7f8e93" data-original="#000000" style="user-select: auto;" class=""/>
			<path d="M407.893,174.08c-2.816-3.772-8.158-4.531-11.947-1.707c-3.772,2.825-4.531,8.175-1.707,11.947L416,213.333     l-21.76,29.013c-2.825,3.772-2.065,9.122,1.707,11.947c1.536,1.152,3.336,1.707,5.111,1.707c2.594,0,5.154-1.178,6.835-3.413     l25.6-34.133c2.278-3.038,2.278-7.202,0-10.24L407.893,174.08z" fill="#7f8e93" data-original="#000000" style="user-select: auto;" class=""/>
			<path d="M378.637,162.739c-4.395-1.758-9.344,0.375-11.093,4.762l-34.133,85.333c-1.749,4.378,0.375,9.344,4.753,11.093     c1.041,0.418,2.108,0.606,3.166,0.606c3.388,0,6.588-2.022,7.927-5.367l34.133-85.333     C385.139,169.455,383.014,164.489,378.637,162.739z" fill="#7f8e93" data-original="#000000" style="user-select: auto;" class=""/>
		</g>
	</g>
</g>
<g xmlns="http://www.w3.org/2000/svg" style="user-select: auto;">
</g>
<g xmlns="http://www.w3.org/2000/svg" style="user-select: auto;">
</g>
<g xmlns="http://www.w3.org/2000/svg" style="user-select: auto;">
</g>
<g xmlns="http://www.w3.org/2000/svg" style="user-select: auto;">
</g>
<g xmlns="http://www.w3.org/2000/svg" style="user-select: auto;">
</g>
<g xmlns="http://www.w3.org/2000/svg" style="user-select: auto;">
</g>
<g xmlns="http://www.w3.org/2000/svg" style="user-select: auto;">
</g>
<g xmlns="http://www.w3.org/2000/svg" style="user-select: auto;">
</g>
<g xmlns="http://www.w3.org/2000/svg" style="user-select: auto;">
</g>
<g xmlns="http://www.w3.org/2000/svg" style="user-select: auto;">
</g>
<g xmlns="http://www.w3.org/2000/svg" style="user-select: auto;">
</g>
<g xmlns="http://www.w3.org/2000/svg" style="user-select: auto;">
</g>
<g xmlns="http://www.w3.org/2000/svg" style="user-select: auto;">
</g>
<g xmlns="http://www.w3.org/2000/svg" style="user-select: auto;">
</g>
<g xmlns="http://www.w3.org/2000/svg" style="user-select: auto;">
</g>
</g></svg>
