<svg width="23" height="23" viewBox="0 0 23 23" fill="none" xmlns="http://www.w3.org/2000/svg">
    <path d="M22.1162 8.97968H21.2167V8.93334H11.1667V13.4H17.4775C16.5568 16.0002 14.0829 17.8667 11.1667 17.8667C7.4666 17.8667 4.46667 14.8668 4.46667 11.1667C4.46667 7.4666 7.4666 4.46667 11.1667 4.46667C12.8746 4.46667 14.4285 5.11099 15.6116 6.16345L18.7701 3.00495C16.7757 1.14626 14.108 0 11.1667 0C4.99988 0 0 4.99988 0 11.1667C0 17.3335 4.99988 22.3333 11.1667 22.3333C17.3335 22.3333 22.3333 17.3335 22.3333 11.1667C22.3333 10.4179 22.2563 9.68709 22.1162 8.97968Z"
          fill="#FFC107"/>
    <path d="M1.2876 5.96914L4.95641 8.65975C5.94912 6.20197 8.35331 4.46667 11.1668 4.46667C12.8747 4.46667 14.4285 5.11099 15.6116 6.16344L18.7701 3.00495C16.7758 1.14626 14.1081 0 11.1668 0C6.87763 0 3.15802 2.42149 1.2876 5.96914Z"
          fill="#FF3D00"/>
    <path d="M11.1667 22.3333C14.0511 22.3333 16.6719 21.2295 18.6534 19.4344L15.1973 16.5099C14.0385 17.3912 12.6225 17.8678 11.1667 17.8666C8.26226 17.8666 5.7961 16.0146 4.86704 13.4301L1.22559 16.2357C3.07367 19.8521 6.82679 22.3333 11.1667 22.3333Z"
          fill="#4CAF50"/>
    <path d="M22.116 8.97975H21.2165V8.93341H11.1665V13.4001H17.4774C17.0369 14.6376 16.2436 15.7189 15.1954 16.5106L15.1971 16.5094L18.6532 19.434C18.4087 19.6562 22.3332 16.7501 22.3332 11.1667C22.3332 10.418 22.2561 9.68716 22.116 8.97975Z"
          fill="#1976D2"/>
</svg>
