<?xml version="1.0"?>
<svg xmlns="http://www.w3.org/2000/svg" xmlns:xlink="http://www.w3.org/1999/xlink" xmlns:svgjs="http://svgjs.com/svgjs" version="1.1" width="512" height="512" x="0" y="0" viewBox="0 0 509.287 509.287" style="user-select: auto;" xml:space="preserve" class=""><g style="user-select: auto;">
<path xmlns="http://www.w3.org/2000/svg" style="user-select: auto;" d="M254.644,482.162c-125.457,0-227.518-102.061-227.518-227.518S129.187,27.126,254.644,27.126  s227.518,102.061,227.518,227.518S380.101,482.162,254.644,482.162z" fill="#f1f3f7" data-original="#f1f3f7" class=""/>
<path xmlns="http://www.w3.org/2000/svg" style="user-select: auto;" d="M254.644,0C113.928,0,0,113.928,0,254.644s113.928,254.644,254.644,254.644  s254.644-113.928,254.644-254.644S395.359,0,254.644,0z M254.644,479.11c-26.448,0-54.93-35.264-72.901-93.584h145.801  C309.573,443.846,281.091,479.11,254.644,479.11z M174.623,358.4c-6.103-26.787-9.833-57.303-10.511-90.193h181.065  c-0.678,33.229-4.747,63.407-10.511,90.193H174.623z M27.465,268.207h109.521c0.678,32.212,4.408,62.728,10.172,90.193H52.556  C38.315,331.274,29.499,300.758,27.465,268.207z M254.644,30.177c26.448,0,54.93,35.264,72.901,93.584H181.743  C199.714,65.441,228.196,30.177,254.644,30.177z M334.665,150.887c6.103,26.787,9.833,57.303,10.511,90.193H164.111  c0.678-33.229,4.747-63.407,10.511-90.193H334.665z M136.985,241.081H27.465c2.034-32.551,10.511-63.068,24.752-90.193h94.601  C141.393,178.352,137.664,208.869,136.985,241.081z M372.302,268.207h109.521c-2.034,32.551-10.511,63.068-24.752,90.193h-94.601  C367.894,330.935,371.624,300.419,372.302,268.207z M372.302,241.081c-0.678-32.212-4.408-62.728-9.833-90.193h94.601  c14.241,27.465,22.718,57.981,24.752,90.193H372.302z M440.456,123.762h-84.768c-10.511-37.298-25.091-67.815-43.062-88.837  C365.181,48.487,409.939,80.699,440.456,123.762z M196.662,34.585c-17.632,21.023-32.551,51.878-43.062,88.837H68.832  C99.348,80.699,144.106,48.487,196.662,34.585z M68.832,385.526H153.6c10.511,37.298,25.091,67.815,43.062,88.837  C144.106,460.8,99.348,428.588,68.832,385.526z M312.625,474.702c17.632-21.022,32.551-51.878,43.062-88.837h84.768  C409.939,428.588,365.181,460.8,312.625,474.702z" fill="#21a8bd" data-original="#6eb1e1" class=""/>
<g xmlns="http://www.w3.org/2000/svg" style="user-select: auto;">
</g>
<g xmlns="http://www.w3.org/2000/svg" style="user-select: auto;">
</g>
<g xmlns="http://www.w3.org/2000/svg" style="user-select: auto;">
</g>
<g xmlns="http://www.w3.org/2000/svg" style="user-select: auto;">
</g>
<g xmlns="http://www.w3.org/2000/svg" style="user-select: auto;">
</g>
<g xmlns="http://www.w3.org/2000/svg" style="user-select: auto;">
</g>
<g xmlns="http://www.w3.org/2000/svg" style="user-select: auto;">
</g>
<g xmlns="http://www.w3.org/2000/svg" style="user-select: auto;">
</g>
<g xmlns="http://www.w3.org/2000/svg" style="user-select: auto;">
</g>
<g xmlns="http://www.w3.org/2000/svg" style="user-select: auto;">
</g>
<g xmlns="http://www.w3.org/2000/svg" style="user-select: auto;">
</g>
<g xmlns="http://www.w3.org/2000/svg" style="user-select: auto;">
</g>
<g xmlns="http://www.w3.org/2000/svg" style="user-select: auto;">
</g>
<g xmlns="http://www.w3.org/2000/svg" style="user-select: auto;">
</g>
<g xmlns="http://www.w3.org/2000/svg" style="user-select: auto;">
</g>
</g></svg>
