<?xml version="1.0"?>
<svg xmlns="http://www.w3.org/2000/svg" xmlns:xlink="http://www.w3.org/1999/xlink" xmlns:svgjs="http://svgjs.com/svgjs" version="1.1" width="512" height="512" x="0" y="0" viewBox="0 0 512.04 512.04" style="user-select: auto;" xml:space="preserve" class=""><g style="user-select: auto;">
<g xmlns="http://www.w3.org/2000/svg" transform="translate(-1)" style="user-select: auto;">
	<g transform="translate(2 1)" style="user-select: auto;">
		<path style="user-select: auto;" d="M347.435,299.042l145.067,145.067c13.299,13.344,13.281,34.937-0.04,48.258    c-13.322,13.322-34.914,13.34-48.258,0.04L299.137,347.34L347.435,299.042z" fill="#e3e7f2" data-original="#e3e7f2"/>
		<path style="user-select: auto;" d="M400.086,203.724c-0.015,108.389-87.878,196.251-196.267,196.267c-4.352,0-8.619-0.171-12.8-0.427    C87.815,392.823,7.554,307.148,7.554,203.724S87.815,14.626,191.019,7.884c4.181-0.256,8.448-0.427,12.8-0.427    C312.208,7.473,400.071,95.336,400.086,203.724z" fill="#a4c2f7" data-original="#a4c2f7"/>
		<ellipse style="user-select: auto;" cx="191.019" cy="203.724" rx="183.467" ry="195.84" fill="#e3e7f2" data-original="#e3e7f2"/>
		<path style="user-select: auto;" d="M365.953,203.724c-0.021,89.535-72.598,162.113-162.133,162.133c-4.267,0-8.619-0.171-12.8-0.512    c-84.315-6.674-149.333-77.043-149.333-161.621S106.704,48.777,191.019,42.103c4.181-0.341,8.533-0.512,12.8-0.512    C293.354,41.612,365.932,114.189,365.953,203.724z" fill="#a4c2f7" data-original="#a4c2f7"/>
		<g style="user-select: auto;">
			<ellipse style="user-select: auto;" cx="191.019" cy="203.724" rx="149.333" ry="161.621" fill="#e3e7f2" data-original="#e3e7f2"/>
			<path style="user-select: auto;" d="M306.049,329.506c-59.311,48.309-144.348,48.487-203.861,0.427     c1.296-1.035,2.665-1.976,4.096-2.816c0,0,35.755-23.467,56.491-35.925c1.681-0.997,2.693-2.825,2.645-4.779v4.267     c-0.007,18.491,14.96,33.496,33.451,33.536h11.179c8.885-0.005,17.404-3.542,23.678-9.833s9.79-14.818,9.773-23.703v-4.267     c0.008,1.962,1.045,3.775,2.73,4.779c20.736,12.459,56.405,35.925,56.405,35.925     C303.844,327.805,304.987,328.605,306.049,329.506z" fill="#e3e7f2" data-original="#e3e7f2"/>
		</g>
		<path style="user-select: auto;" d="M304.427,280.78h-55.296c-1.499-0.018-2.942,0.57-4.002,1.63c-1.06,1.06-1.648,2.503-1.63,4.002    v4.267c0.018,8.885-3.498,17.412-9.773,23.703s-14.793,9.828-23.678,9.833H198.87c-2.41,0.007-4.814-0.251-7.168-0.768    c-15.353-3.42-26.276-17.038-26.283-32.768v-4.267c0.038-1.49-0.532-2.932-1.578-3.994s-2.479-1.653-3.969-1.638h-55.381    c-4.171,0.131-8.067-2.078-10.097-5.725s-1.855-8.121,0.454-11.598c16.563-25.018,28.286-52.921,34.56-82.261    c1.704-8.023,2.562-16.203,2.56-24.405c0.02-35.12,25.171-65.193,59.733-71.424c4.23-0.715,8.51-1.086,12.8-1.109    c40.056,0.006,72.527,32.477,72.533,72.533c-0.002,8.202,0.856,16.382,2.56,24.405c6.197,29.365,17.926,57.282,34.56,82.261    c2.292,3.494,2.447,7.974,0.4,11.618S308.604,280.919,304.427,280.78z" fill="#a4c2f7" data-original="#a4c2f7"/>
		<path style="user-select: auto;" d="M278.827,280.78h-55.296c-1.499-0.018-2.942,0.57-4.002,1.63s-1.648,2.503-1.63,4.002v4.267    c0.03,15.714-10.862,29.339-26.197,32.768c-15.353-3.42-26.276-17.038-26.283-32.768v-4.267c0.038-1.49-0.532-2.932-1.578-3.994    s-2.479-1.653-3.969-1.638h-55.381c-4.171,0.131-8.067-2.078-10.097-5.725s-1.855-8.121,0.454-11.598    c16.563-25.018,28.286-52.921,34.56-82.261c1.704-8.023,2.562-16.203,2.56-24.405c0.02-35.12,25.171-65.193,59.733-71.424    c34.563,6.231,59.713,36.304,59.733,71.424c-0.002,8.202,0.856,16.382,2.56,24.405c6.197,29.365,17.926,57.282,34.56,82.261    c2.292,3.494,2.447,7.974,0.4,11.618S283.004,280.919,278.827,280.78z" fill="#d4e1f4" data-original="#d4e1f4" class=""/>
		<path style="user-select: auto;" d="M191.019,399.564c4.181,0.256,8.448,0.427,12.8,0.427c4.143,0,8.23-0.229,12.308-0.482    c-103.055-6.982-183.057-92.656-182.975-195.947C33.235,100.27,113.372,14.724,216.438,7.905    c-4.177-0.266-8.376-0.447-12.619-0.447c-4.352,0-8.619,0.171-12.8,0.427C87.815,14.626,7.554,100.301,7.554,203.724    S87.815,392.823,191.019,399.564z" fill="#ffffff" data-original="#ffffff"/>
	</g>
	<g style="user-select: auto;">
		<polygon style="user-select: auto;" points="324.322,359.459 402.76,437.898 452.236,487.374 440.17,499.44 390.694,449.972     312.256,371.525   " fill="#ffffff" data-original="#ffffff"/>
		<g style="user-select: auto;">
			<path style="user-select: auto;" d="M205.819,409.524c39.547,0.033,78.247-11.457,111.369-33.064l19.202,19.202     c3.333,3.332,8.736,3.332,12.068,0c3.332-3.333,3.332-8.736,0-12.068l-17.175-17.175c13.534-10.526,25.704-22.696,36.23-36.23     l120.956,120.951c9.983,10.013,9.983,26.216,0,36.229c-10.147,9.658-26.086,9.658-36.233,0l-0.003-0.002l-55.503-55.502     c-3.333-3.332-8.736-3.332-12.068,0c-3.332,3.333-3.332,8.736,0,12.068l55.498,55.498l0.009,0.013     c16.671,16.67,43.699,16.669,60.369-0.002c16.67-16.671,16.669-43.699-0.002-60.369L377.554,316.096     c50.902-78.592,41.99-181.703-21.64-250.397S190.154-19.758,107.902,24.989S-15.756,164.587,7.35,255.328     S112.183,409.565,205.819,409.524z M205.819,16.991c103.682,0,187.733,84.051,187.733,187.733s-84.051,187.733-187.733,187.733     S18.086,308.407,18.086,204.724C18.203,101.091,102.186,17.108,205.819,16.991z" fill="#014a79" data-original="#428dff" class=""/>
			<path style="user-select: auto;" d="M205.819,375.391c94.257,0,170.667-76.41,170.667-170.667S300.076,34.058,205.819,34.058     S35.153,110.468,35.153,204.724C35.259,298.937,111.607,375.285,205.819,375.391z M119.003,331.31     c9.245-6.02,27.382-17.765,42.073-26.859c5.482,17.38,21.569,29.224,39.793,29.299h11.183c18.24-0.075,34.336-11.94,39.806-29.34     c14.228,8.809,31.766,20.173,41.387,26.444C240.939,367.314,171.5,367.496,119.003,331.31L119.003,331.31z M251.128,273.245     c-3.61-0.203-7.144,1.084-9.779,3.559s-4.14,5.923-4.163,9.538c-0.096,0.351-0.168,0.709-0.216,1.07v4.267     c0.01,13.779-11.137,24.965-24.917,25.004h-11.183c-13.779-0.039-24.926-11.225-24.917-25.004v-3.51     c0.004-0.085-0.003-0.168,0-0.254v-0.503c0-0.261-0.126-0.481-0.148-0.735c0.007-3.652-1.476-7.15-4.106-9.685     c-2.63-2.535-6.179-3.888-9.829-3.747h-55.375c-1.174,0.03-2.263-0.61-2.808-1.65c-0.423-0.695-0.366-1.581,0.142-2.217     c17.185-25.986,29.371-54.949,35.933-85.404c1.824-8.608,2.743-17.384,2.742-26.183c0-35.346,28.654-64,64-64s64,28.654,64,64     c-0.001,8.807,0.921,17.589,2.75,26.204c6.454,30.468,18.64,59.432,35.908,85.35c0.5,0.659,0.546,1.556,0.117,2.263     c-0.555,1.05-1.664,1.687-2.85,1.638L251.128,273.245z M205.819,51.124c63.868-0.088,121.107,39.408,143.691,99.15     c22.584,59.742,5.786,127.226-42.169,169.409c-6.548-4.291-28.437-18.585-45.83-29.371h44.917     c7.545,0.04,14.483-4.132,17.983-10.817c3.34-6.374,2.842-14.08-1.292-19.971c-15.964-24.033-27.221-50.878-33.175-79.108     c-1.581-7.438-2.377-15.021-2.375-22.625c0-44.772-36.295-81.067-81.067-81.067s-81.067,36.295-81.067,81.067     c0.002,7.584-0.788,15.147-2.358,22.567c-6.053,28.218-17.306,55.063-33.184,79.163c-4.161,5.851-4.692,13.541-1.375,19.908     c3.473,6.715,10.415,10.919,17.975,10.883h45c-18.489,11.46-41.981,26.803-46.653,29.866     C56.588,278.131,39.512,210.544,62,150.623S141.817,51.041,205.819,51.124z" fill="#014a79" data-original="#428dff" class=""/>
			<path style="user-select: auto;" d="M364.931,405.376c-0.566,0.107-1.115,0.29-1.632,0.542c-0.516,0.169-1.004,0.414-1.447,0.728     c-0.466,0.331-0.909,0.693-1.326,1.084c-1.575,1.62-2.48,3.775-2.534,6.034c-0.053,2.874,1.365,5.576,3.76,7.166     c2.395,1.589,5.436,1.846,8.064,0.68c1.036-0.417,1.98-1.032,2.779-1.812c2.43-2.45,3.153-6.118,1.836-9.306     c-1.318-3.189-4.419-5.276-7.87-5.296L364.931,405.376z" fill="#014a79" data-original="#428dff" class=""/>
			<path style="user-select: auto;" d="M476.411,475.316c2.953-2.896,3.444-7.476,1.171-10.932c-2.272-3.455-6.672-4.82-10.501-3.256     c-3.829,1.564-6.015,5.618-5.219,9.677c0.797,4.058,4.354,6.985,8.49,6.986C472.611,477.757,474.774,476.873,476.411,475.316z" fill="#014a79" data-original="#428dff" class=""/>
		</g>
	</g>
</g>
<g xmlns="http://www.w3.org/2000/svg" style="user-select: auto;">
</g>
<g xmlns="http://www.w3.org/2000/svg" style="user-select: auto;">
</g>
<g xmlns="http://www.w3.org/2000/svg" style="user-select: auto;">
</g>
<g xmlns="http://www.w3.org/2000/svg" style="user-select: auto;">
</g>
<g xmlns="http://www.w3.org/2000/svg" style="user-select: auto;">
</g>
<g xmlns="http://www.w3.org/2000/svg" style="user-select: auto;">
</g>
<g xmlns="http://www.w3.org/2000/svg" style="user-select: auto;">
</g>
<g xmlns="http://www.w3.org/2000/svg" style="user-select: auto;">
</g>
<g xmlns="http://www.w3.org/2000/svg" style="user-select: auto;">
</g>
<g xmlns="http://www.w3.org/2000/svg" style="user-select: auto;">
</g>
<g xmlns="http://www.w3.org/2000/svg" style="user-select: auto;">
</g>
<g xmlns="http://www.w3.org/2000/svg" style="user-select: auto;">
</g>
<g xmlns="http://www.w3.org/2000/svg" style="user-select: auto;">
</g>
<g xmlns="http://www.w3.org/2000/svg" style="user-select: auto;">
</g>
<g xmlns="http://www.w3.org/2000/svg" style="user-select: auto;">
</g>
</g></svg>
