<svg width="173" height="147" viewBox="0 0 173 147" fill="none" xmlns="http://www.w3.org/2000/svg">
    <g opacity="0.5">
        <circle cx="170.098" cy="144.727" r="2.2732" transform="rotate(180 170.098 144.727)" fill="#F0F4FF"
                fill-opacity="0.5"/>
        <circle cx="170.098" cy="133.361" r="2.2732" transform="rotate(180 170.098 133.361)" fill="#F0F4FF"
                fill-opacity="0.5"/>
        <circle cx="170.098" cy="121.995" r="2.2732" transform="rotate(180 170.098 121.995)" fill="#F0F4FF"
                fill-opacity="0.5"/>
        <circle cx="170.098" cy="110.629" r="2.2732" transform="rotate(180 170.098 110.629)" fill="#F0F4FF"
                fill-opacity="0.5"/>
        <circle cx="170.098" cy="99.2629" r="2.2732" transform="rotate(180 170.098 99.2629)" fill="#F0F4FF"
                fill-opacity="0.5"/>
        <circle cx="170.098" cy="87.8969" r="2.2732" transform="rotate(180 170.098 87.8969)" fill="#F0F4FF"
                fill-opacity="0.5"/>
        <circle cx="157.974" cy="144.727" r="2.2732" transform="rotate(180 157.974 144.727)" fill="#F0F4FF"
                fill-opacity="0.5"/>
        <circle cx="157.974" cy="133.361" r="2.2732" transform="rotate(180 157.974 133.361)" fill="#F0F4FF"
                fill-opacity="0.5"/>
        <circle cx="157.974" cy="121.995" r="2.2732" transform="rotate(180 157.974 121.995)" fill="#F0F4FF"
                fill-opacity="0.5"/>
        <circle cx="157.974" cy="110.629" r="2.2732" transform="rotate(180 157.974 110.629)" fill="#F0F4FF"
                fill-opacity="0.5"/>
        <circle cx="157.974" cy="99.2629" r="2.2732" transform="rotate(180 157.974 99.2629)" fill="#F0F4FF"
                fill-opacity="0.5"/>
        <circle cx="157.974" cy="87.8969" r="2.2732" transform="rotate(180 157.974 87.8969)" fill="#F0F4FF"
                fill-opacity="0.5"/>
        <circle cx="145.85" cy="144.727" r="2.2732" transform="rotate(180 145.85 144.727)" fill="#F0F4FF"
                fill-opacity="0.5"/>
        <circle cx="145.85" cy="133.361" r="2.2732" transform="rotate(180 145.85 133.361)" fill="#F0F4FF"
                fill-opacity="0.5"/>
        <circle cx="145.85" cy="121.995" r="2.2732" transform="rotate(180 145.85 121.995)" fill="#F0F4FF"
                fill-opacity="0.5"/>
        <circle cx="145.85" cy="110.629" r="2.2732" transform="rotate(180 145.85 110.629)" fill="#F0F4FF"
                fill-opacity="0.5"/>
        <circle cx="145.85" cy="99.2629" r="2.2732" transform="rotate(180 145.85 99.2629)" fill="#F0F4FF"
                fill-opacity="0.5"/>
        <circle cx="145.85" cy="87.8969" r="2.2732" transform="rotate(180 145.85 87.8969)" fill="#F0F4FF"
                fill-opacity="0.5"/>
        <circle cx="133.727" cy="144.727" r="2.2732" transform="rotate(180 133.727 144.727)" fill="#F0F4FF"
                fill-opacity="0.5"/>
        <circle cx="133.727" cy="133.361" r="2.2732" transform="rotate(180 133.727 133.361)" fill="#F0F4FF"
                fill-opacity="0.5"/>
        <circle cx="133.727" cy="121.995" r="2.2732" transform="rotate(180 133.727 121.995)" fill="#F0F4FF"
                fill-opacity="0.5"/>
        <circle cx="133.727" cy="110.629" r="2.2732" transform="rotate(180 133.727 110.629)" fill="#F0F4FF"
                fill-opacity="0.5"/>
        <circle cx="133.727" cy="99.2629" r="2.2732" transform="rotate(180 133.727 99.2629)" fill="#F0F4FF"
                fill-opacity="0.5"/>
        <circle cx="133.727" cy="87.8969" r="2.2732" transform="rotate(180 133.727 87.8969)" fill="#F0F4FF"
                fill-opacity="0.5"/>
        <circle cx="121.603" cy="144.727" r="2.2732" transform="rotate(180 121.603 144.727)" fill="#F0F4FF"
                fill-opacity="0.5"/>
        <circle cx="121.603" cy="133.361" r="2.2732" transform="rotate(180 121.603 133.361)" fill="#F0F4FF"
                fill-opacity="0.5"/>
        <circle cx="121.603" cy="121.995" r="2.2732" transform="rotate(180 121.603 121.995)" fill="#F0F4FF"
                fill-opacity="0.5"/>
        <circle cx="121.603" cy="110.629" r="2.2732" transform="rotate(180 121.603 110.629)" fill="#F0F4FF"
                fill-opacity="0.5"/>
        <circle cx="121.603" cy="99.2629" r="2.2732" transform="rotate(180 121.603 99.2629)" fill="#F0F4FF"
                fill-opacity="0.5"/>
        <circle cx="121.603" cy="87.8969" r="2.2732" transform="rotate(180 121.603 87.8969)" fill="#F0F4FF"
                fill-opacity="0.5"/>
        <circle cx="109.479" cy="144.727" r="2.2732" transform="rotate(180 109.479 144.727)" fill="#F0F4FF"
                fill-opacity="0.5"/>
        <circle cx="109.479" cy="133.361" r="2.2732" transform="rotate(180 109.479 133.361)" fill="#F0F4FF"
                fill-opacity="0.5"/>
        <circle cx="109.479" cy="121.995" r="2.2732" transform="rotate(180 109.479 121.995)" fill="#F0F4FF"
                fill-opacity="0.5"/>
        <circle cx="109.479" cy="110.629" r="2.2732" transform="rotate(180 109.479 110.629)" fill="#F0F4FF"
                fill-opacity="0.5"/>
        <circle cx="109.479" cy="99.2629" r="2.2732" transform="rotate(180 109.479 99.2629)" fill="#F0F4FF"
                fill-opacity="0.5"/>
        <circle cx="109.479" cy="87.8969" r="2.2732" transform="rotate(180 109.479 87.8969)" fill="#F0F4FF"
                fill-opacity="0.5"/>
        <circle cx="97.3557" cy="144.727" r="2.2732" transform="rotate(180 97.3557 144.727)" fill="#F0F4FF"
                fill-opacity="0.5"/>
        <circle cx="97.3557" cy="133.361" r="2.2732" transform="rotate(180 97.3557 133.361)" fill="#F0F4FF"
                fill-opacity="0.5"/>
        <circle cx="97.3557" cy="121.995" r="2.2732" transform="rotate(180 97.3557 121.995)" fill="#F0F4FF"
                fill-opacity="0.5"/>
        <circle cx="97.3557" cy="110.629" r="2.2732" transform="rotate(180 97.3557 110.629)" fill="#F0F4FF"
                fill-opacity="0.5"/>
        <circle cx="97.3557" cy="99.2629" r="2.2732" transform="rotate(180 97.3557 99.2629)" fill="#F0F4FF"
                fill-opacity="0.5"/>
        <circle cx="97.3557" cy="87.8969" r="2.2732" transform="rotate(180 97.3557 87.8969)" fill="#F0F4FF"
                fill-opacity="0.5"/>
        <circle cx="85.2322" cy="144.727" r="2.2732" transform="rotate(180 85.2322 144.727)" fill="#F0F4FF"
                fill-opacity="0.5"/>
        <circle cx="85.2322" cy="133.361" r="2.2732" transform="rotate(180 85.2322 133.361)" fill="#F0F4FF"
                fill-opacity="0.5"/>
        <circle cx="85.2322" cy="121.995" r="2.2732" transform="rotate(180 85.2322 121.995)" fill="#F0F4FF"
                fill-opacity="0.5"/>
        <circle cx="85.2322" cy="110.629" r="2.2732" transform="rotate(180 85.2322 110.629)" fill="#F0F4FF"
                fill-opacity="0.5"/>
        <circle cx="85.2322" cy="99.2629" r="2.2732" transform="rotate(180 85.2322 99.2629)" fill="#F0F4FF"
                fill-opacity="0.5"/>
        <circle cx="85.2322" cy="87.8969" r="2.2732" transform="rotate(180 85.2322 87.8969)" fill="#F0F4FF"
                fill-opacity="0.5"/>
        <circle cx="73.1082" cy="144.727" r="2.2732" transform="rotate(180 73.1082 144.727)" fill="#F0F4FF"
                fill-opacity="0.5"/>
        <circle cx="73.1082" cy="133.361" r="2.2732" transform="rotate(180 73.1082 133.361)" fill="#F0F4FF"
                fill-opacity="0.5"/>
        <circle cx="73.1082" cy="121.995" r="2.2732" transform="rotate(180 73.1082 121.995)" fill="#F0F4FF"
                fill-opacity="0.5"/>
        <circle cx="73.1082" cy="110.629" r="2.2732" transform="rotate(180 73.1082 110.629)" fill="#F0F4FF"
                fill-opacity="0.5"/>
        <circle cx="73.1082" cy="99.2629" r="2.2732" transform="rotate(180 73.1082 99.2629)" fill="#F0F4FF"
                fill-opacity="0.5"/>
        <circle cx="73.1082" cy="87.8969" r="2.2732" transform="rotate(180 73.1082 87.8969)" fill="#F0F4FF"
                fill-opacity="0.5"/>
        <circle cx="60.9846" cy="144.727" r="2.2732" transform="rotate(180 60.9846 144.727)" fill="#F0F4FF"
                fill-opacity="0.5"/>
        <circle cx="60.9846" cy="133.361" r="2.2732" transform="rotate(180 60.9846 133.361)" fill="#F0F4FF"
                fill-opacity="0.5"/>
        <circle cx="60.9846" cy="121.995" r="2.2732" transform="rotate(180 60.9846 121.995)" fill="#F0F4FF"
                fill-opacity="0.5"/>
        <circle cx="60.9846" cy="110.629" r="2.2732" transform="rotate(180 60.9846 110.629)" fill="#F0F4FF"
                fill-opacity="0.5"/>
        <circle cx="60.9846" cy="99.2629" r="2.2732" transform="rotate(180 60.9846 99.2629)" fill="#F0F4FF"
                fill-opacity="0.5"/>
        <circle cx="60.9846" cy="87.8969" r="2.2732" transform="rotate(180 60.9846 87.8969)" fill="#F0F4FF"
                fill-opacity="0.5"/>
        <circle cx="48.8606" cy="144.727" r="2.2732" transform="rotate(180 48.8606 144.727)" fill="#F0F4FF"
                fill-opacity="0.5"/>
        <circle cx="48.8606" cy="133.361" r="2.2732" transform="rotate(180 48.8606 133.361)" fill="#F0F4FF"
                fill-opacity="0.5"/>
        <circle cx="48.8606" cy="121.995" r="2.2732" transform="rotate(180 48.8606 121.995)" fill="#F0F4FF"
                fill-opacity="0.5"/>
        <circle cx="48.8606" cy="110.629" r="2.2732" transform="rotate(180 48.8606 110.629)" fill="#F0F4FF"
                fill-opacity="0.5"/>
        <circle cx="48.8606" cy="99.2629" r="2.2732" transform="rotate(180 48.8606 99.2629)" fill="#F0F4FF"
                fill-opacity="0.5"/>
        <circle cx="48.8606" cy="87.8969" r="2.2732" transform="rotate(180 48.8606 87.8969)" fill="#F0F4FF"
                fill-opacity="0.5"/>
    </g>
    <rect opacity="0.5" x="-11" width="115.175" height="115.175" fill="white" fill-opacity="0.2"/>
</svg>
