<?xml version="1.0"?>
<svg xmlns="http://www.w3.org/2000/svg" xmlns:xlink="http://www.w3.org/1999/xlink" xmlns:svgjs="http://svgjs.com/svgjs" version="1.1" width="512" height="512" x="0" y="0" viewBox="0 0 512 512" style="user-select: auto;" xml:space="preserve" class=""><g style="user-select: auto;">
<g xmlns="http://www.w3.org/2000/svg" style="user-select: auto;">
	<g transform="translate(0 1)" style="user-select: auto;">
		<path style="user-select: auto;" d="M349.867,425.666l-51.2,25.6c-14.119-20.32-24.84-42.8-31.744-66.56    c-7.098-23.792-10.776-48.473-10.923-73.301V280.6h59.733v25.6C315.701,348.432,327.527,389.826,349.867,425.666z" fill="#e3e7f2" data-original="#e3e7f2"/>
		<path style="user-select: auto;" d="M469.333,101.4v42.667H25.6v-34.133c0.014-4.707,3.826-8.519,8.533-8.533H469.333z" fill="#7fabfa" data-original="#7fabfa"/>
		<path style="user-select: auto;" d="M435.2,101.4v42.667H25.6v-34.133c0.014-4.707,3.826-8.519,8.533-8.533H435.2z" fill="#d4e1f4" data-original="#d4e1f4"/>
		<path style="user-select: auto;" d="M119.467,101.4H51.2V75.8c0.011-5.259,2.442-10.221,6.591-13.454    c4.149-3.232,9.554-4.376,14.657-3.101L112.981,69.4c3.816,0.927,6.499,4.35,6.485,8.277L119.467,101.4z" fill="#a4c2f7" data-original="#a4c2f7"/>
		<g style="user-select: auto;">
			<path style="user-select: auto;" d="M349.867,203.8c-6.792-0.009-13.309,2.685-18.112,7.488c-4.803,4.803-7.497,11.32-7.488,18.112     v59.733h-76.8V280.6h-96.683c-3.454-0.012-6.566,2.085-7.851,5.291L86.443,423.277c-1.764,4.604-5.437,8.216-10.07,9.902     c-4.633,1.686-9.769,1.28-14.079-1.113l-44.971-25.003c-8.189-4.529-11.198-14.811-6.741-23.04l45.227-81.067     c8.181-14.659,12.471-31.17,12.459-47.957c-0.068-9.397-7.669-16.999-17.067-17.067H34.133c-4.707-0.014-8.519-3.826-8.533-8.533     v-25.6L349.867,203.8z" fill="#7fabfa" data-original="#7fabfa"/>
			<path style="user-select: auto;" d="M503.467,58.733V255c0.003,2.963-1.534,5.714-4.059,7.263c-2.525,1.55-5.674,1.675-8.314,0.331     l-13.312-6.656c0.075-0.307,0.103-0.623,0.085-0.939v-85.333c-4.707-0.014-8.519-3.826-8.533-8.533v-102.4     c0.014-4.707,3.826-8.519,8.533-8.533h17.067C499.64,50.214,503.453,54.026,503.467,58.733z" fill="#7fabfa" data-original="#7fabfa"/>
		</g>
		<path style="user-select: auto;" d="M247.467,203.8v76.8h-96.683c-3.454-0.012-6.566,2.085-7.851,5.291L86.443,423.277    c-1.764,4.604-5.437,8.216-10.07,9.902c-4.633,1.686-9.769,1.28-14.079-1.113l-44.971-25.003    c-8.189-4.529-11.198-14.811-6.741-23.04l45.227-81.067c8.181-14.659,12.471-31.17,12.459-47.957    c-0.068-9.397-7.669-16.999-17.067-17.067H34.133c-4.707-0.014-8.519-3.826-8.533-8.533v-25.6H247.467z" fill="#d4e1f4" data-original="#d4e1f4"/>
		<path style="user-select: auto;" d="M443.733,203.8c-4.491,0.005-8.903,1.182-12.8,3.413c-1.92,1.151-3.696,2.526-5.291,4.096    c-4.808,4.793-7.51,11.302-7.509,18.091v98.133c0,11.782-9.551,21.333-21.333,21.333s-21.333-9.551-21.333-21.333V229.4    c0.009-6.792-2.685-13.309-7.488-18.112c-4.803-4.803-11.32-7.497-18.112-7.488H443.733z" fill="#e3e7f2" data-original="#e3e7f2"/>
		<path style="user-select: auto;" d="M503.467,169.666V255c0.003,2.963-1.534,5.714-4.059,7.263c-2.525,1.55-5.674,1.675-8.314,0.331    l-13.312-6.656c0.075-0.307,0.103-0.623,0.085-0.939v-85.333H503.467z" fill="#7fabfa" data-original="#7fabfa"/>
		<path style="user-select: auto;" d="M477.867,169.666V255c0.018,0.315-0.011,0.632-0.085,0.939l-3.755-1.877    c-2.886-1.428-4.708-4.375-4.693-7.595V229.4c0.009-6.792-2.685-13.309-7.488-18.112c-4.803-4.803-11.32-7.497-18.112-7.488H25.6    c-9.443-0.038-17.076-7.709-17.067-17.152v-25.429c-0.009-9.443,7.623-17.114,17.067-17.152h443.733v17.067    C469.347,165.84,473.16,169.652,477.867,169.666z" fill="#d4e1f4" data-original="#d4e1f4"/>
		<path style="user-select: auto;" d="M443.733,203.8c-4.491,0.005-8.903,1.182-12.8,3.413c-3.897-2.232-8.309-3.408-12.8-3.413H443.733z    " fill="#f4f4f4" data-original="#f4f4f4"/>
		<g style="user-select: auto;">
			<path style="user-select: auto;" d="M503.467,58.733v110.933h-25.6c-4.707-0.014-8.519-3.826-8.533-8.533v-102.4     c0.014-4.707,3.826-8.519,8.533-8.533h17.067C499.64,50.214,503.453,54.026,503.467,58.733z" fill="#7fabfa" data-original="#7fabfa"/>
			<path style="user-select: auto;" d="M119.467,77.677l0,23.723H51.2V75.8c0.011-5.259,2.442-10.221,6.591-13.454     c4.149-3.232,9.554-4.376,14.657-3.101L112.981,69.4C116.798,70.326,119.48,73.75,119.467,77.677z" fill="#7fabfa" data-original="#7fabfa"/>
		</g>
	</g>
	<g transform="translate(0 2)" style="user-select: auto;">
		<path style="user-select: auto;" d="M256,288.133v22.272c0.147,24.828,3.824,49.509,10.923,73.301    c6.904,23.76,17.625,46.24,31.744,66.56l19.375-9.687c-11.006-17.734-19.588-36.862-25.519-56.873    c-7.098-23.792-10.776-48.473-10.923-73.301v-22.272h-8.533V279.6h-25.6v8.533H256z" fill="#ffffff" data-original="#ffffff"/>
		<path style="user-select: auto;" d="M25.6,202.8v25.6c0.014,4.707,3.826,8.519,8.533,8.533H51.2    c9.397,0.068,16.999,7.669,17.067,17.067c0.012,16.788-4.277,33.298-12.459,47.957l-45.227,81.067    c-4.456,8.229-1.448,18.511,6.741,23.04l44.971,25.003c6.669,3.695,14.981,2.499,20.338-2.925l-39.709-22.077    c-8.189-4.529-11.198-14.811-6.741-23.04l45.227-81.067c8.181-14.659,12.471-31.17,12.459-47.957    c-0.068-9.397-7.669-16.999-17.067-17.067H59.733c-4.707-0.014-8.519-3.826-8.533-8.533v-25.6    c-9.443-0.038-17.076-7.709-17.067-17.152v-25.429c-0.009-9.443,7.623-17.114,17.067-17.152v-34.133    c0.014-4.707,3.826-8.519,8.533-8.533H76.8V74.8c-0.005-5.431,2.604-10.533,7.011-13.708l-11.364-2.847    c-5.103-1.275-10.508-0.131-14.657,3.101c-4.149,3.232-6.58,8.194-6.591,13.454v25.6H34.133c-4.707,0.014-8.519,3.826-8.533,8.533    v34.133c-9.443,0.038-17.076,7.709-17.067,17.152v25.429C8.524,195.091,16.157,202.762,25.6,202.8z" fill="#ffffff" data-original="#ffffff"/>
	</g>
	<g style="user-select: auto;">
		<path style="user-select: auto;" d="M3.133,380.867l27.018-48.441l13.509-24.221c4.585-7.426,8.394-15.305,11.366-23.511    c3.11-9.248,4.7-18.938,4.71-28.694h17.067c-0.01,11.608-1.902,23.138-5.603,34.141c-3.303,9.199-7.537,18.038-12.635,26.377    l-13.509,24.221L18.039,389.18L3.133,380.867z" fill="#ffffff" data-original="#ffffff"/>
		<g style="user-select: auto;">
			<path style="user-select: auto;" d="M37.182,330.684c0.303,0.45,0.673,0.852,1.095,1.193c0.445,0.358,0.915,0.686,1.405,0.979     c1.988,1.073,4.309,1.355,6.496,0.79c2.78-0.733,4.992-2.835,5.867-5.574c0.875-2.738,0.291-5.734-1.548-7.943     c-0.684-0.883-1.534-1.623-2.502-2.178c-1.972-1.125-4.313-1.409-6.496-0.789c-2.184,0.62-4.026,2.092-5.112,4.085     c-1.071,1.989-1.353,4.309-0.79,6.496l0.618,1.518C36.473,329.776,36.798,330.255,37.182,330.684z" fill="#014a79" data-original="#428dff" class=""/>
			<path style="user-select: auto;" d="M494.933,42.666h-17.067c-9.421,0.012-17.054,7.646-17.067,17.067v34.133H128.004V78.675     c0.01-7.832-5.324-14.662-12.925-16.55l-40.6-10.15c-7.647-1.911-15.748-0.193-21.962,4.658     c-6.213,4.851-9.845,12.293-9.846,20.176v17.058h-8.538c-9.421,0.011-17.056,7.645-17.067,17.067v27.223     C6.883,141.787,0.061,151.405,0,162.216v25.433c0.034,10.828,6.866,20.469,17.071,24.09v18.66     c0.011,9.421,7.645,17.056,17.067,17.067h17.067c4.711,0.005,8.529,3.822,8.533,8.533c-0.01,9.756-1.6,19.447-4.71,28.694     c-0.819,2.466-1.781,4.882-2.798,7.271c-1.635,4.188,0.109,8.938,4.066,11.072c2.079,1.099,4.526,1.265,6.734,0.455     c2.208-0.81,3.968-2.518,4.842-4.701c1.216-2.842,2.355-5.717,3.331-8.651c3.701-11.003,5.593-22.533,5.603-34.141     c-0.015-14.132-11.468-25.585-25.6-25.6H34.138v-17.067h204.8v59.733h-88.15c-3.378-0.005-6.682,0.995-9.49,2.872l-0.027,0.011     l-0.073,0.074c-2.768,1.879-4.922,4.531-6.193,7.626L78.471,421.241c-0.883,2.29-2.714,4.085-5.02,4.922     c-2.307,0.837-4.863,0.635-7.009-0.556l-44.988-25.008c-1.977-1.084-3.442-2.91-4.07-5.076c-0.628-2.166-0.367-4.492,0.724-6.466     l0.002-0.006l16.555-29.682c2.256-4.112,0.772-9.274-3.324-11.558s-9.268-0.835-11.581,3.245l-16.627,29.81l0.025,0.014     l-0.092,0.11c-6.59,12.346-2.093,27.695,10.117,34.533l44.963,25c6.441,3.58,14.114,4.203,21.049,1.711     c6.935-2.492,12.455-7.858,15.143-14.719l31.905-77.65h61.494c18.843-0.02,34.113-15.29,34.133-34.133v-25.6h17.067     c-0.001,2.263,0.898,4.434,2.499,6.035c1.6,1.6,3.771,2.499,6.035,2.499v22.267c-0.092,51.618,15.324,102.073,44.25,144.825     c2.441,3.418,7.005,4.552,10.763,2.675l51.2-25.6c2.188-1.096,3.802-3.078,4.43-5.443c0.628-2.365,0.211-4.887-1.146-6.924     c-21.375-34.452-32.7-74.19-32.7-114.733v-17.067c2.263,0.001,4.434-0.898,6.035-2.499c1.6-1.6,2.499-3.771,2.499-6.035V230.4     c0-9.426,7.641-17.067,17.067-17.067c9.426,0,17.067,7.641,17.067,17.067v98.133c0,16.495,13.372,29.867,29.867,29.867     c16.495,0,29.867-13.372,29.867-29.867V230.4c0-9.426,7.641-17.067,17.067-17.067c9.426,0,17.067,7.641,17.067,17.067v17.067     c-0.022,6.453,3.627,12.358,9.408,15.225l17.017,8.508c5.285,2.693,11.591,2.444,16.647-0.658     c5.056-3.102,8.135-8.61,8.128-14.542V59.733C511.988,50.312,504.354,42.678,494.933,42.666z M204.804,315.733     c-0.011,9.421-7.645,17.056-17.067,17.067h-54.481l13.604-33.108l8.182,12.25c1.684,2.56,4.61,4.02,7.668,3.827     c3.058-0.193,5.777-2.01,7.126-4.762c1.348-2.751,1.118-6.014-0.602-8.549l-8.232-12.325h43.803V315.733z M477.867,59.733h17.067     v102.4h-17.067V59.733z M59.738,76.808c-0.008-2.63,1.205-5.114,3.283-6.725c2.071-1.613,4.768-2.188,7.317-1.558l40.6,10.15     v15.191h-51.2L59.738,76.808z M34.133,110.933H460.8v25.6H34.133V110.933z M337.65,431.766l-36.146,18.067     c-24.189-38.64-37.001-83.313-36.966-128.9l0-22.267H307.2v17.067C307.191,356.387,317.68,396.355,337.65,431.766z      M315.733,230.4v51.2h-59.729v-68.267h64.477C317.406,218.497,315.767,224.389,315.733,230.4z M409.6,290.133H384v-25.6h25.6     V290.133z M396.8,341.333c-7.066-0.008-12.792-5.734-12.8-12.8V307.2h25.6v21.333C409.592,335.599,403.866,341.325,396.8,341.333     z M409.6,230.4v17.067H384V230.4c-0.034-6.01-1.673-11.902-4.747-17.067h35.094C411.273,218.498,409.634,224.39,409.6,230.4z      M494.908,255.958l-17.042-8.492V230.4c-0.019-18.844-15.29-34.115-34.133-34.133H25.683c-4.756-0.006-8.61-3.86-8.617-8.617     v-25.433c-0.011-2.289,0.893-4.487,2.511-6.105c1.618-1.618,3.817-2.523,6.105-2.511H460.8v8.533     c0.012,9.421,7.646,17.054,17.067,17.067h17.067v25.6L494.908,255.958z" fill="#014a79" data-original="#428dff" class=""/>
		</g>
	</g>
</g>
<g xmlns="http://www.w3.org/2000/svg" style="user-select: auto;">
</g>
<g xmlns="http://www.w3.org/2000/svg" style="user-select: auto;">
</g>
<g xmlns="http://www.w3.org/2000/svg" style="user-select: auto;">
</g>
<g xmlns="http://www.w3.org/2000/svg" style="user-select: auto;">
</g>
<g xmlns="http://www.w3.org/2000/svg" style="user-select: auto;">
</g>
<g xmlns="http://www.w3.org/2000/svg" style="user-select: auto;">
</g>
<g xmlns="http://www.w3.org/2000/svg" style="user-select: auto;">
</g>
<g xmlns="http://www.w3.org/2000/svg" style="user-select: auto;">
</g>
<g xmlns="http://www.w3.org/2000/svg" style="user-select: auto;">
</g>
<g xmlns="http://www.w3.org/2000/svg" style="user-select: auto;">
</g>
<g xmlns="http://www.w3.org/2000/svg" style="user-select: auto;">
</g>
<g xmlns="http://www.w3.org/2000/svg" style="user-select: auto;">
</g>
<g xmlns="http://www.w3.org/2000/svg" style="user-select: auto;">
</g>
<g xmlns="http://www.w3.org/2000/svg" style="user-select: auto;">
</g>
<g xmlns="http://www.w3.org/2000/svg" style="user-select: auto;">
</g>
</g></svg>
