<svg width="219" height="12" viewBox="0 0 219 12" fill="none" xmlns="http://www.w3.org/2000/svg">
    <line y1="6.5" x2="93" y2="6.5" stroke="#C4C4C4"/>
    <line x1="126" y1="6.5" x2="219" y2="6.5" stroke="#C4C4C4"/>
    <path d="M109.116 6.36364C109.116 4.03764 107.724 2.62784 105.842 2.62784C103.953 2.62784 102.565 4.03764 102.565 6.36364C102.565 8.68608 103.953 10.0994 105.842 10.0994C107.724 10.0994 109.116 8.68963 109.116 6.36364ZM108.03 6.36364C108.03 8.13565 107.092 9.09801 105.842 9.09801C104.589 9.09801 103.655 8.13565 103.655 6.36364C103.655 4.59162 104.589 3.62926 105.842 3.62926C107.092 3.62926 108.03 4.59162 108.03 6.36364ZM110.485 10H111.582V7.24787H113.073C113.098 7.24787 113.119 7.24787 113.144 7.24787L114.622 10H115.872L114.259 7.05611C115.151 6.72585 115.595 5.98366 115.595 5.0071C115.595 3.66832 114.764 2.72727 113.077 2.72727H110.485V10ZM111.582 6.30327V3.66832H112.96C114.043 3.66832 114.49 4.18324 114.49 5.0071C114.49 5.82741 114.043 6.30327 112.974 6.30327H111.582Z"
          fill="#C4C4C4"/>
</svg>
