<svg width="187" height="115" viewBox="0 0 187 115" fill="none" xmlns="http://www.w3.org/2000/svg">
    <g opacity="0.5">
        <circle cx="184.51" cy="59.103" r="2.2732" transform="rotate(180 184.51 59.103)" fill="#F0F4FF"
                fill-opacity="0.5"/>
        <circle cx="184.51" cy="47.7371" r="2.2732" transform="rotate(180 184.51 47.7371)" fill="#F0F4FF"
                fill-opacity="0.5"/>
        <circle cx="184.51" cy="36.3711" r="2.2732" transform="rotate(180 184.51 36.3711)" fill="#F0F4FF"
                fill-opacity="0.5"/>
        <circle cx="184.51" cy="25.0051" r="2.2732" transform="rotate(180 184.51 25.0051)" fill="#F0F4FF"
                fill-opacity="0.5"/>
        <circle cx="184.51" cy="13.6392" r="2.2732" transform="rotate(180 184.51 13.6392)" fill="#F0F4FF"
                fill-opacity="0.5"/>
        <circle cx="184.51" cy="2.27319" r="2.2732" transform="rotate(180 184.51 2.27319)" fill="#F0F4FF"
                fill-opacity="0.5"/>
        <circle cx="172.386" cy="59.103" r="2.2732" transform="rotate(180 172.386 59.103)" fill="#F0F4FF"
                fill-opacity="0.5"/>
        <circle cx="172.386" cy="47.7371" r="2.2732" transform="rotate(180 172.386 47.7371)" fill="#F0F4FF"
                fill-opacity="0.5"/>
        <circle cx="172.386" cy="36.3711" r="2.2732" transform="rotate(180 172.386 36.3711)" fill="#F0F4FF"
                fill-opacity="0.5"/>
        <circle cx="172.386" cy="25.0051" r="2.2732" transform="rotate(180 172.386 25.0051)" fill="#F0F4FF"
                fill-opacity="0.5"/>
        <circle cx="172.386" cy="13.6392" r="2.2732" transform="rotate(180 172.386 13.6392)" fill="#F0F4FF"
                fill-opacity="0.5"/>
        <circle cx="172.386" cy="2.27319" r="2.2732" transform="rotate(180 172.386 2.27319)" fill="#F0F4FF"
                fill-opacity="0.5"/>
        <circle cx="160.262" cy="59.103" r="2.2732" transform="rotate(180 160.262 59.103)" fill="#F0F4FF"
                fill-opacity="0.5"/>
        <circle cx="160.262" cy="47.7371" r="2.2732" transform="rotate(180 160.262 47.7371)" fill="#F0F4FF"
                fill-opacity="0.5"/>
        <circle cx="160.262" cy="36.3711" r="2.2732" transform="rotate(180 160.262 36.3711)" fill="#F0F4FF"
                fill-opacity="0.5"/>
        <circle cx="160.262" cy="25.0051" r="2.2732" transform="rotate(180 160.262 25.0051)" fill="#F0F4FF"
                fill-opacity="0.5"/>
        <circle cx="160.262" cy="13.6392" r="2.2732" transform="rotate(180 160.262 13.6392)" fill="#F0F4FF"
                fill-opacity="0.5"/>
        <circle cx="160.262" cy="2.27319" r="2.2732" transform="rotate(180 160.262 2.27319)" fill="#F0F4FF"
                fill-opacity="0.5"/>
        <circle cx="148.139" cy="59.103" r="2.2732" transform="rotate(180 148.139 59.103)" fill="#F0F4FF"
                fill-opacity="0.5"/>
        <circle cx="148.139" cy="47.7371" r="2.2732" transform="rotate(180 148.139 47.7371)" fill="#F0F4FF"
                fill-opacity="0.5"/>
        <circle cx="148.139" cy="36.3711" r="2.2732" transform="rotate(180 148.139 36.3711)" fill="#F0F4FF"
                fill-opacity="0.5"/>
        <circle cx="148.139" cy="25.0051" r="2.2732" transform="rotate(180 148.139 25.0051)" fill="#F0F4FF"
                fill-opacity="0.5"/>
        <circle cx="148.139" cy="13.6392" r="2.2732" transform="rotate(180 148.139 13.6392)" fill="#F0F4FF"
                fill-opacity="0.5"/>
        <circle cx="148.139" cy="2.27319" r="2.2732" transform="rotate(180 148.139 2.27319)" fill="#F0F4FF"
                fill-opacity="0.5"/>
        <circle cx="136.015" cy="59.103" r="2.2732" transform="rotate(180 136.015 59.103)" fill="#F0F4FF"
                fill-opacity="0.5"/>
        <circle cx="136.015" cy="47.7371" r="2.2732" transform="rotate(180 136.015 47.7371)" fill="#F0F4FF"
                fill-opacity="0.5"/>
        <circle cx="136.015" cy="36.3711" r="2.2732" transform="rotate(180 136.015 36.3711)" fill="#F0F4FF"
                fill-opacity="0.5"/>
        <circle cx="136.015" cy="25.0051" r="2.2732" transform="rotate(180 136.015 25.0051)" fill="#F0F4FF"
                fill-opacity="0.5"/>
        <circle cx="136.015" cy="13.6392" r="2.2732" transform="rotate(180 136.015 13.6392)" fill="#F0F4FF"
                fill-opacity="0.5"/>
        <circle cx="136.015" cy="2.27319" r="2.2732" transform="rotate(180 136.015 2.27319)" fill="#F0F4FF"
                fill-opacity="0.5"/>
        <circle cx="123.891" cy="59.103" r="2.2732" transform="rotate(180 123.891 59.103)" fill="#F0F4FF"
                fill-opacity="0.5"/>
        <circle cx="123.891" cy="47.7371" r="2.2732" transform="rotate(180 123.891 47.7371)" fill="#F0F4FF"
                fill-opacity="0.5"/>
        <circle cx="123.891" cy="36.3711" r="2.2732" transform="rotate(180 123.891 36.3711)" fill="#F0F4FF"
                fill-opacity="0.5"/>
        <circle cx="123.891" cy="25.0051" r="2.2732" transform="rotate(180 123.891 25.0051)" fill="#F0F4FF"
                fill-opacity="0.5"/>
        <circle cx="123.891" cy="13.6392" r="2.2732" transform="rotate(180 123.891 13.6392)" fill="#F0F4FF"
                fill-opacity="0.5"/>
        <circle cx="123.891" cy="2.27319" r="2.2732" transform="rotate(180 123.891 2.27319)" fill="#F0F4FF"
                fill-opacity="0.5"/>
        <circle cx="111.768" cy="59.103" r="2.2732" transform="rotate(180 111.768 59.103)" fill="#F0F4FF"
                fill-opacity="0.5"/>
        <circle cx="111.768" cy="47.7371" r="2.2732" transform="rotate(180 111.768 47.7371)" fill="#F0F4FF"
                fill-opacity="0.5"/>
        <circle cx="111.768" cy="36.3711" r="2.2732" transform="rotate(180 111.768 36.3711)" fill="#F0F4FF"
                fill-opacity="0.5"/>
        <circle cx="111.768" cy="25.0051" r="2.2732" transform="rotate(180 111.768 25.0051)" fill="#F0F4FF"
                fill-opacity="0.5"/>
        <circle cx="111.768" cy="13.6392" r="2.2732" transform="rotate(180 111.768 13.6392)" fill="#F0F4FF"
                fill-opacity="0.5"/>
        <circle cx="111.768" cy="2.27319" r="2.2732" transform="rotate(180 111.768 2.27319)" fill="#F0F4FF"
                fill-opacity="0.5"/>
        <circle cx="99.6443" cy="59.103" r="2.2732" transform="rotate(180 99.6443 59.103)" fill="#F0F4FF"
                fill-opacity="0.5"/>
        <circle cx="99.6443" cy="47.7371" r="2.2732" transform="rotate(180 99.6443 47.7371)" fill="#F0F4FF"
                fill-opacity="0.5"/>
        <circle cx="99.6443" cy="36.3711" r="2.2732" transform="rotate(180 99.6443 36.3711)" fill="#F0F4FF"
                fill-opacity="0.5"/>
        <circle cx="99.6443" cy="25.0051" r="2.2732" transform="rotate(180 99.6443 25.0051)" fill="#F0F4FF"
                fill-opacity="0.5"/>
        <circle cx="99.6443" cy="13.6392" r="2.2732" transform="rotate(180 99.6443 13.6392)" fill="#F0F4FF"
                fill-opacity="0.5"/>
        <circle cx="99.6443" cy="2.27319" r="2.2732" transform="rotate(180 99.6443 2.27319)" fill="#F0F4FF"
                fill-opacity="0.5"/>
        <circle cx="87.5203" cy="59.103" r="2.2732" transform="rotate(180 87.5203 59.103)" fill="#F0F4FF"
                fill-opacity="0.5"/>
        <circle cx="87.5203" cy="47.7371" r="2.2732" transform="rotate(180 87.5203 47.7371)" fill="#F0F4FF"
                fill-opacity="0.5"/>
        <circle cx="87.5203" cy="36.3711" r="2.2732" transform="rotate(180 87.5203 36.3711)" fill="#F0F4FF"
                fill-opacity="0.5"/>
        <circle cx="87.5203" cy="25.0051" r="2.2732" transform="rotate(180 87.5203 25.0051)" fill="#F0F4FF"
                fill-opacity="0.5"/>
        <circle cx="87.5203" cy="13.6392" r="2.2732" transform="rotate(180 87.5203 13.6392)" fill="#F0F4FF"
                fill-opacity="0.5"/>
        <circle cx="87.5203" cy="2.27319" r="2.2732" transform="rotate(180 87.5203 2.27319)" fill="#F0F4FF"
                fill-opacity="0.5"/>
        <circle cx="75.3967" cy="59.103" r="2.2732" transform="rotate(180 75.3967 59.103)" fill="#F0F4FF"
                fill-opacity="0.5"/>
        <circle cx="75.3967" cy="47.7371" r="2.2732" transform="rotate(180 75.3967 47.7371)" fill="#F0F4FF"
                fill-opacity="0.5"/>
        <circle cx="75.3967" cy="36.3711" r="2.2732" transform="rotate(180 75.3967 36.3711)" fill="#F0F4FF"
                fill-opacity="0.5"/>
        <circle cx="75.3967" cy="25.0051" r="2.2732" transform="rotate(180 75.3967 25.0051)" fill="#F0F4FF"
                fill-opacity="0.5"/>
        <circle cx="75.3967" cy="13.6392" r="2.2732" transform="rotate(180 75.3967 13.6392)" fill="#F0F4FF"
                fill-opacity="0.5"/>
        <circle cx="75.3967" cy="2.27319" r="2.2732" transform="rotate(180 75.3967 2.27319)" fill="#F0F4FF"
                fill-opacity="0.5"/>
        <circle cx="63.2727" cy="59.103" r="2.2732" transform="rotate(180 63.2727 59.103)" fill="#F0F4FF"
                fill-opacity="0.5"/>
        <circle cx="63.2727" cy="47.7371" r="2.2732" transform="rotate(180 63.2727 47.7371)" fill="#F0F4FF"
                fill-opacity="0.5"/>
        <circle cx="63.2727" cy="36.3711" r="2.2732" transform="rotate(180 63.2727 36.3711)" fill="#F0F4FF"
                fill-opacity="0.5"/>
        <circle cx="63.2727" cy="25.0051" r="2.2732" transform="rotate(180 63.2727 25.0051)" fill="#F0F4FF"
                fill-opacity="0.5"/>
        <circle cx="63.2727" cy="13.6392" r="2.2732" transform="rotate(180 63.2727 13.6392)" fill="#F0F4FF"
                fill-opacity="0.5"/>
        <circle cx="63.2727" cy="2.27319" r="2.2732" transform="rotate(180 63.2727 2.27319)" fill="#F0F4FF"
                fill-opacity="0.5"/>
    </g>
    <rect opacity="0.5" y="23" width="115.175" height="115.175" fill="white" fill-opacity="0.2"/>
</svg>
