<?xml version="1.0"?>
<svg xmlns="http://www.w3.org/2000/svg" xmlns:xlink="http://www.w3.org/1999/xlink" version="1.1" id="Capa_1" x="0px" y="0px" viewBox="0 0 512.006 512.006" style="user-select: auto;" xml:space="preserve" width="512px" height="512px"><g style="user-select: auto;"><g transform="translate(0 -1)" style="user-select: auto;">
	<g style="user-select: auto;">
		<g style="user-select: auto;">
			<path d="M468.543,35.788c-3.05-16.607-15.651-29.828-32.092-33.671c-16.441-3.843-33.597,2.422-43.693,15.956H227.143     c-13.446-11.891-33.822-11.266-46.514,1.426c-12.692,12.692-13.317,33.069-1.426,46.514v37.393     c0,9.426,7.641,17.067,17.067,17.067v42.667c0,4.713,3.82,8.533,8.533,8.533s8.533-3.82,8.533-8.533v-42.667     c9.426,0,17.067-7.641,17.067-17.067V66.013c5.468-6.16,8.502-14.103,8.533-22.34c-0.036-2.885-0.443-5.753-1.212-8.533h147.132     c-1.149,5.631-1.149,11.436,0,17.067H256.003c-4.713,0-8.533,3.82-8.533,8.533s3.82,8.533,8.533,8.533h130.705l-73.122,136.235     c-11.504,7.396-19.56,19.098-22.364,32.483c-2.804,13.386-0.121,27.336,7.447,38.728v159.488     c-18.851,0-34.133,15.282-34.133,34.133v25.6h-256c-4.713,0-8.533,3.82-8.533,8.533s3.82,8.533,8.533,8.533H452.27     c4.713,0,8.533-3.82,8.533-8.533s-3.821-8.533-8.533-8.533h-34.133v-25.6c0-18.851-15.282-34.133-34.133-34.133V276.718     c3.944-5.952,6.59-12.669,7.765-19.712h69.035c28.265-0.028,51.172-22.935,51.2-51.2V86.339     C511.973,61.074,493.518,39.607,468.543,35.788z M213.336,103.406H196.27V76.594c5.574,1.616,11.492,1.616,17.067,0V103.406z      M204.803,60.739c-9.426,0-17.067-7.641-17.067-17.067s7.641-17.067,17.067-17.067c9.426,0,17.067,7.641,17.067,17.067     S214.229,60.739,204.803,60.739z M403.891,31.926c4.385-8.533,13.185-13.886,22.779-13.854     c12.119-0.04,22.606,8.424,25.125,20.279s-3.62,23.851-14.708,28.743c-11.088,4.892-24.087,1.338-31.145-8.514l-0.051-0.068     C400.279,50.731,399.506,40.459,403.891,31.926z M341.336,214.339c18.851,0,34.133,15.282,34.133,34.133     s-15.282,34.133-34.133,34.133c-18.851,0-34.133-15.282-34.133-34.133S322.485,214.339,341.336,214.339z M366.936,292.743     v143.462h-51.2V292.743C331.553,301.982,351.12,301.982,366.936,292.743z M401.07,470.339v25.6H281.603v-25.6     c0-9.426,7.641-17.067,17.067-17.067h85.333C393.428,453.272,401.07,460.913,401.07,470.339z M377.398,212.163     c-9.577-9.54-22.545-14.894-36.062-14.891c-1.374,0-2.722,0.102-4.07,0.205L401.445,77.9c7.281,5.453,16.127,8.413,25.225,8.439     c0.495,0,0.956-0.128,1.442-0.145L377.398,212.163z M494.936,205.806c0,18.851-15.282,34.133-34.133,34.133h-69.035     c-0.601-3.591-1.585-7.107-2.935-10.487L449.078,79.82c9.701-6.003,16.594-15.64,19.14-26.76     c15.598,3.472,26.7,17.3,26.718,33.28V205.806z" data-original="#000000" class="active-path" style="user-select: auto;" data-old_color="#000000" fill="#2D835B"/>
			<path d="M503.47,495.939h-17.067c-4.713,0-8.533,3.82-8.533,8.533s3.82,8.533,8.533,8.533h17.067c4.713,0,8.533-3.82,8.533-8.533     S508.182,495.939,503.47,495.939z" data-original="#000000" class="active-path" style="user-select: auto;" data-old_color="#000000" fill="#2D835B"/>
			<path d="M332.803,257.006h17.067c4.713,0,8.533-3.82,8.533-8.533s-3.82-8.533-8.533-8.533h-17.067     c-4.713,0-8.533,3.82-8.533,8.533S328.09,257.006,332.803,257.006z" data-original="#000000" class="active-path" style="user-select: auto;" data-old_color="#000000" fill="#2D835B"/>
		</g>
	</g>
</g></g> </svg>
