<?xml version="1.0"?>
<svg xmlns="http://www.w3.org/2000/svg" xmlns:xlink="http://www.w3.org/1999/xlink" xmlns:svgjs="http://svgjs.com/svgjs" version="1.1" width="512" height="512" x="0" y="0" viewBox="0 0 512.002 512.002" style="user-select: auto;" xml:space="preserve" class=""><g style="user-select: auto;">
<g xmlns="http://www.w3.org/2000/svg" style="user-select: auto;">
	<g style="user-select: auto;">
		<g style="user-select: auto;">
			<path d="M473.623,426.883c-21.793-2.202-41.712,12.456-46.093,33.917H297.805c-2.131-10.151-7.893-19.176-16.204-25.382V332.8     h204.8c14.132-0.015,25.585-11.468,25.6-25.6v-85.333c-0.015-14.132-11.468-25.585-25.6-25.6h-25.6V25.6     c0-14.138-11.462-25.6-25.6-25.6s-25.6,11.461-25.6,25.6v170.667h-128V25.6c0-14.138-11.462-25.6-25.6-25.6     s-25.6,11.461-25.6,25.6v170.667h-128V25.6c0-14.138-11.462-25.6-25.6-25.6s-25.6,11.461-25.6,25.6v170.667h-25.6     c-14.132,0.015-25.585,11.468-25.6,25.6V307.2c0.015,14.132,11.468,25.585,25.6,25.6h204.8v102.618     c-8.311,6.206-14.073,15.231-16.204,25.382H84.472c-4.381-21.461-24.3-36.119-46.093-33.917     c-21.793,2.201-38.378,20.547-38.378,42.451c0,21.904,16.586,40.249,38.378,42.451c21.793,2.201,41.712-12.456,46.093-33.917     h129.725C218.252,497.732,235.727,512,256.001,512c20.275,0,37.749-14.268,41.804-34.133H427.53     c4.381,21.461,24.3,36.119,46.093,33.917c21.793-2.202,38.378-20.547,38.378-42.451     C512.002,447.43,495.416,429.084,473.623,426.883z M42.668,494.933c-14.138,0-25.6-11.461-25.6-25.6s11.462-25.6,25.6-25.6     s25.6,11.462,25.6,25.6C68.252,483.465,56.8,494.918,42.668,494.933z M426.668,25.6c0-4.713,3.82-8.533,8.533-8.533     s8.533,3.82,8.533,8.533v170.667h-17.067V25.6z M247.468,25.6c0-4.713,3.82-8.533,8.533-8.533s8.533,3.82,8.533,8.533v170.667     h-17.067V25.6z M68.268,25.6c0-4.713,3.82-8.533,8.533-8.533s8.533,3.82,8.533,8.533v170.667H68.268V25.6z M102.401,256v59.733     h-76.8c-4.711-0.005-8.529-3.822-8.533-8.533v-85.333c0.005-4.711,3.822-8.529,8.533-8.533h460.8     c4.711,0.005,8.529,3.822,8.533,8.533V307.2c-0.005,4.711-3.822,8.529-8.533,8.533h-76.8V256     c-0.015-14.132-11.468-25.585-25.6-25.6h-256C113.869,230.415,102.417,241.868,102.401,256z M119.468,315.733V256     c0.005-4.711,3.822-8.529,8.533-8.533h256c4.711,0.005,8.529,3.822,8.533,8.533v59.733H273.068H119.468z M264.535,332.8v94.729     c-5.631-1.15-11.436-1.15-17.067,0V332.8H264.535z M256.001,494.933c-14.138,0-25.6-11.461-25.6-25.6s11.461-25.6,25.6-25.6     s25.6,11.462,25.6,25.6C281.586,483.465,270.133,494.918,256.001,494.933z M469.335,494.933c-14.138,0-25.6-11.461-25.6-25.6     c0.015-14.132,11.468-25.585,25.6-25.6c14.138,0,25.6,11.462,25.6,25.6S483.473,494.933,469.335,494.933z" fill="#ffffff" data-original="#000000" style="user-select: auto;"/>
			<path d="M153.601,273.067h-8.533c-4.713,0-8.533,3.821-8.533,8.533s3.82,8.533,8.533,8.533h8.533c4.713,0,8.533-3.82,8.533-8.533     S158.314,273.067,153.601,273.067z" fill="#ffffff" data-original="#000000" style="user-select: auto;"/>
			<path d="M196.268,273.067h-8.533c-4.713,0-8.533,3.821-8.533,8.533s3.82,8.533,8.533,8.533h8.533c4.713,0,8.533-3.82,8.533-8.533     S200.981,273.067,196.268,273.067z" fill="#ffffff" data-original="#000000" style="user-select: auto;"/>
			<path d="M238.935,273.067h-8.533c-4.713,0-8.533,3.821-8.533,8.533s3.82,8.533,8.533,8.533h8.533c4.713,0,8.533-3.82,8.533-8.533     S243.647,273.067,238.935,273.067z" fill="#ffffff" data-original="#000000" style="user-select: auto;"/>
			<path d="M281.601,290.133c4.713,0,8.533-3.82,8.533-8.533s-3.82-8.533-8.533-8.533h-8.533c-4.713,0-8.533,3.821-8.533,8.533     s3.821,8.533,8.533,8.533H281.601z" fill="#ffffff" data-original="#000000" style="user-select: auto;"/>
			<path d="M315.735,290.133h51.2c4.713,0,8.533-3.82,8.533-8.533s-3.82-8.533-8.533-8.533h-51.2c-4.713,0-8.533,3.821-8.533,8.533     S311.022,290.133,315.735,290.133z" fill="#ffffff" data-original="#000000" style="user-select: auto;"/>
			<path d="M59.735,230.4c-14.138,0-25.6,11.461-25.6,25.6s11.461,25.6,25.6,25.6s25.6-11.462,25.6-25.6     C85.319,241.868,73.867,230.415,59.735,230.4z M59.735,264.533c-4.713,0-8.533-3.82-8.533-8.533s3.82-8.533,8.533-8.533     s8.533,3.82,8.533,8.533C68.263,260.711,64.445,264.529,59.735,264.533z" fill="#ffffff" data-original="#000000" style="user-select: auto;"/>
			<path d="M452.268,281.6c14.138,0,25.6-11.462,25.6-25.6c-0.015-14.132-11.468-25.585-25.6-25.6c-14.138,0-25.6,11.461-25.6,25.6     S438.129,281.6,452.268,281.6z M452.268,247.467c4.713,0,8.533,3.82,8.533,8.533c-0.005,4.711-3.823,8.529-8.533,8.533     c-4.713,0-8.533-3.82-8.533-8.533S447.555,247.467,452.268,247.467z" fill="#ffffff" data-original="#000000" style="user-select: auto;"/>
		</g>
	</g>
</g>
<g xmlns="http://www.w3.org/2000/svg" style="user-select: auto;">
</g>
<g xmlns="http://www.w3.org/2000/svg" style="user-select: auto;">
</g>
<g xmlns="http://www.w3.org/2000/svg" style="user-select: auto;">
</g>
<g xmlns="http://www.w3.org/2000/svg" style="user-select: auto;">
</g>
<g xmlns="http://www.w3.org/2000/svg" style="user-select: auto;">
</g>
<g xmlns="http://www.w3.org/2000/svg" style="user-select: auto;">
</g>
<g xmlns="http://www.w3.org/2000/svg" style="user-select: auto;">
</g>
<g xmlns="http://www.w3.org/2000/svg" style="user-select: auto;">
</g>
<g xmlns="http://www.w3.org/2000/svg" style="user-select: auto;">
</g>
<g xmlns="http://www.w3.org/2000/svg" style="user-select: auto;">
</g>
<g xmlns="http://www.w3.org/2000/svg" style="user-select: auto;">
</g>
<g xmlns="http://www.w3.org/2000/svg" style="user-select: auto;">
</g>
<g xmlns="http://www.w3.org/2000/svg" style="user-select: auto;">
</g>
<g xmlns="http://www.w3.org/2000/svg" style="user-select: auto;">
</g>
<g xmlns="http://www.w3.org/2000/svg" style="user-select: auto;">
</g>
</g></svg>
