<?xml version="1.0"?>
<svg xmlns="http://www.w3.org/2000/svg" xmlns:xlink="http://www.w3.org/1999/xlink" xmlns:svgjs="http://svgjs.com/svgjs" version="1.1" width="512" height="512" x="0" y="0" viewBox="0 0 64 64" style="user-select: auto;" xml:space="preserve"><g style="user-select: auto;"><path xmlns="http://www.w3.org/2000/svg" d="m57.706 33.292-1.411 1.417c3.034 3.021 4.705 7.031 4.705 11.291s-1.671 8.27-4.706 11.292l1.411 1.417c3.415-3.4 5.295-7.913 5.295-12.709s-1.88-9.309-5.294-12.708z" fill="#ffffff" data-original="#000000" style="user-select: auto;"/><path xmlns="http://www.w3.org/2000/svg" d="m54.681 36.268-1.362 1.465c2.374 2.207 3.681 5.143 3.681 8.267s-1.307 6.06-3.681 8.268l1.362 1.465c2.785-2.591 4.319-6.047 4.319-9.733s-1.534-7.142-4.319-9.732z" fill="#ffffff" data-original="#000000" style="user-select: auto;"/><path xmlns="http://www.w3.org/2000/svg" d="m7.706 34.708-1.411-1.417c-3.415 3.4-5.295 7.913-5.295 12.709s1.88 9.309 5.294 12.708l1.411-1.417c-3.034-3.021-4.705-7.031-4.705-11.291s1.671-8.27 4.706-11.292z" fill="#ffffff" data-original="#000000" style="user-select: auto;"/><path xmlns="http://www.w3.org/2000/svg" d="m9.319 36.268c-2.785 2.59-4.319 6.046-4.319 9.732s1.534 7.142 4.319 9.732l1.362-1.465c-2.374-2.207-3.681-5.143-3.681-8.267s1.307-6.06 3.681-8.268z" fill="#ffffff" data-original="#000000" style="user-select: auto;"/><path xmlns="http://www.w3.org/2000/svg" d="m28 54.869 11.803-7.869-11.803-7.869zm2-12 6.197 4.131-6.197 4.131z" fill="#ffffff" data-original="#000000" style="user-select: auto;"/><path xmlns="http://www.w3.org/2000/svg" d="m52 27c2.321 0 4.521-1.004 6.032-2.75 1.717-1.955 2.351-4.58 1.741-7.202-.834-3.579-4.019-6.048-7.775-6.048-.046 0-.093 0-.139.001-.093.001-.184.004-.272.009-1.326-4.693-5.638-8.01-10.587-8.01-2.348 0-4.619.749-6.496 2.125-2.456-2.633-5.866-4.125-9.504-4.125-6.105 0-11.3 4.168-12.654 10.026-1.933.154-3.719.992-5.085 2.398-1.519 1.562-2.32 3.626-2.257 5.812.122 4.281 3.84 7.764 8.286 7.764h9.71v6.782c-4.222 2.884-7 7.732-7 13.218 0 8.822 7.178 16 16 16s16-7.178 16-16c0-5.487-2.778-10.335-7-13.218v-6.782zm-44.998-7.822c-.047-1.64.554-3.189 1.693-4.361s2.667-1.817 4.314-1.821l.984.16.163-.984c.88-5.314 5.441-9.172 10.844-9.172 3.363 0 6.497 1.507 8.599 4.134l.657.821.787-.697c1.644-1.456 3.759-2.258 5.957-2.258 4.307 0 8.023 3.07 8.838 7.299l.192.999.996-.209c.254-.054.538-.082.865-.087 2.895-.03 5.305 1.804 5.933 4.5.463 1.986-.009 3.965-1.3 5.435-1.135 1.311-2.784 2.063-4.524 2.063h-14c-1.654 0-3 1.346-3 3v3.292c-.653-.124-1.322-.199-2-.241v-6.051h-2v6.051c-.678.042-1.347.117-2 .241v-3.292c0-1.654-1.346-3-3-3h-12.71c-3.375 0-6.195-2.612-6.288-5.822zm17.998 7.822h1c.551 0 1 .449 1 1v3.811c-.69.228-1.355.508-2 .823zm21 20c0 7.72-6.28 14-14 14s-14-6.28-14-14 6.28-14 14-14 14 6.28 14 14zm-7-14.365c-.645-.316-1.31-.596-2-.823v-3.812c0-.551.449-1 1-1h1z" fill="#ffffff" data-original="#000000" style="user-select: auto;"/></g></svg>
