<?xml version="1.0"?>
<svg xmlns="http://www.w3.org/2000/svg" xmlns:xlink="http://www.w3.org/1999/xlink" xmlns:svgjs="http://svgjs.com/svgjs" version="1.1" width="512" height="512" x="0" y="0" viewBox="0 0 64 64" style="user-select: auto;" xml:space="preserve" class=""><g style="user-select: auto;"><g xmlns="http://www.w3.org/2000/svg" id="Wifi-3" data-name="Wifi" style="user-select: auto;"><path d="m44 46h5v9h-5z" fill="#088da1" data-original="#57a4ff" style="user-select: auto;" class=""/><circle cx="38" cy="30" fill="#088da1" r="3" data-original="#57a4ff" style="user-select: auto;" class=""/><g fill="#004fac" style="user-select: auto;"><path d="m56 1a3 3 0 0 0 -3 3v44h-3v-2a1 1 0 0 0 -1-1h-4v-17a5.006 5.006 0 0 0 -5-5h-30a5.006 5.006 0 0 0 -5 5v30a5.006 5.006 0 0 0 5 5h30a5.006 5.006 0 0 0 5-5v-2h4a1 1 0 0 0 1-1v-1h6a3 3 0 0 0 3-3v-47a3 3 0 0 0 -3-3zm-13 57a3 3 0 0 1 -3 3h-30a3 3 0 0 1 -3-3v-30a3 3 0 0 1 3-3h30a3 3 0 0 1 3 3zm5-4h-3v-7h3zm9-3a1 1 0 0 1 -1 1h-6v-2h3a2 2 0 0 0 2-2v-44a1 1 0 0 1 2 0z" fill="#21a8bd" data-original="#004fac" style="user-select: auto;" class=""/><path d="m38 26a4 4 0 1 0 4 4 4 4 0 0 0 -4-4zm0 6a2 2 0 1 1 2-2 2 2 0 0 1 -2 2z" fill="#21a8bd" data-original="#004fac" style="user-select: auto;" class=""/><path d="m16 57h-6a1 1 0 0 0 0 2h6a1 1 0 0 0 0-2z" fill="#21a8bd" data-original="#004fac" style="user-select: auto;" class=""/><path d="m20 57h-1a1 1 0 0 0 0 2h1a1 1 0 0 0 0-2z" fill="#21a8bd" data-original="#004fac" style="user-select: auto;" class=""/><path d="m25 46.131a7.518 7.518 0 0 0 -5.35 2.216 1 1 0 1 0 1.414 1.414 5.566 5.566 0 0 1 8.111.256 1 1 0 0 0 1.5-1.325 7.574 7.574 0 0 0 -5.675-2.561z" fill="#21a8bd" data-original="#004fac" style="user-select: auto;" class=""/><path d="m25 41.565a14.084 14.084 0 0 0 -9.662 3.819 1 1 0 0 0 1.368 1.459 12.132 12.132 0 0 1 16.235-.318 1 1 0 1 0 1.309-1.511 14.124 14.124 0 0 0 -9.25-3.449z" fill="#21a8bd" data-original="#004fac" style="user-select: auto;" class=""/><path d="m25 37a20.658 20.658 0 0 0 -13.8 5.272 1 1 0 0 0 1.334 1.491 18.7 18.7 0 0 1 24.935 0 1 1 0 0 0 1.331-1.489 20.661 20.661 0 0 0 -13.8-5.274z" fill="#21a8bd" data-original="#004fac" style="user-select: auto;" class=""/><path d="m25 29h6a1 1 0 0 0 0-2h-6a1 1 0 0 0 0 2z" fill="#21a8bd" data-original="#004fac" style="user-select: auto;" class=""/><path d="m31 30h-1a1 1 0 0 0 0 2h1a1 1 0 0 0 0-2z" fill="#21a8bd" data-original="#004fac" style="user-select: auto;" class=""/></g></g></g></svg>
