<?xml version="1.0"?>
<svg xmlns="http://www.w3.org/2000/svg" xmlns:xlink="http://www.w3.org/1999/xlink" xmlns:svgjs="http://svgjs.com/svgjs" version="1.1" width="512" height="512" x="0" y="0" viewBox="0 0 64 64" style="user-select: auto;" xml:space="preserve" class=""><g style="user-select: auto;"><g xmlns="http://www.w3.org/2000/svg" style="user-select: auto;"><path d="m33 39h-.826c2.669-1.602 4.758-4.06 5.887-7h.439c2.481 0 4.5-2.019 4.5-4.5 0-2.31-1.756-4.197-4-4.449v-.051h2c.553 0 1-.448 1-1v-4c0-.552-.447-1-1-1h-1.046c-.433-6.41-4.976-11.869-11.134-13.496l.172-1.38c.036-.285-.053-.571-.242-.786-.19-.215-.463-.338-.75-.338h-6c-.287 0-.56.123-.75.338-.189.215-.278.501-.242.786l.173 1.381c-6.163 1.626-10.702 7.076-11.135 13.495h-1.046c-.553 0-1 .448-1 1v4c0 .552.447 1 1 1h2v.051c-2.244.252-4 2.139-4 4.449 0 2.481 2.019 4.5 4.5 4.5h.439c1.129 2.94 3.218 5.398 5.887 7h-.826c-7.72 0-14 6.28-14 14v9c0 .552.447 1 1 1h42c.553 0 1-.448 1-1v-9c0-7.72-6.28-14-14-14zm2 2.181v8.819h-2v-9c.683 0 1.348.071 2 .181zm4 19.819h-4v-6c0-.552-.447-1-1-1h-18c-.553 0-1 .448-1 1v6h-4v-9h28zm-6 0h-16v-5h16zm8-33.5c0 1.319-1.03 2.392-2.327 2.483.209-.963.327-1.959.327-2.983v-1.949c1.14.232 2 1.242 2 2.449zm-14.133-24.5-.75 6h-2.234l-.75-6zm-5.436 2.511.577 4.613c.062.501.488.876.992.876h4c.504 0 .93-.375.992-.876l.577-4.613c5.163 1.48 8.963 6.08 9.385 11.489h-25.908c.421-5.416 4.219-10.01 9.385-11.489zm-11.431 13.489h30v2h-30zm-1 8.5c0-1.207.86-2.217 2-2.449v1.949c0 1.024.118 2.02.327 2.983-1.297-.091-2.327-1.164-2.327-2.483zm4-.5v-4h24v4c0 6.617-5.383 12-12 12s-12-5.383-12-12zm18 14v9h-12v-9zm-14 9h-2v-8.819c.652-.11 1.317-.181 2-.181zm-12 3c0-5.213 3.347-9.647 8-11.3v8.3h-3c-.553 0-1 .448-1 1v10h-4zm40 8h-4v-10c0-.552-.447-1-1-1h-3v-8.3c4.653 1.653 8 6.087 8 11.3z" fill="#e1e1e1" data-original="#000000" style="user-select: auto;" class=""/><path d="m25 35c-1.654 0-3-1.346-3-3h-2c0 2.757 2.243 5 5 5s5-2.243 5-5h-2c0 1.654-1.346 3-3 3z" fill="#e1e1e1" data-original="#000000" style="user-select: auto;" class=""/><path d="m57 38.333v-12.666c2.419-1.149 4-3.605 4-6.319 0-2.956-1.875-5.606-4.666-6.594-.306-.107-.646-.062-.911.126-.266.188-.423.493-.423.817v5.237l-1 1-1-1v-5.237c0-.325-.157-.629-.423-.816-.265-.188-.605-.233-.911-.126-2.791.988-4.666 3.638-4.666 6.594 0 2.714 1.581 5.17 4 6.319v12.665c-2.419 1.149-4 3.605-4 6.319 0 2.956 1.875 5.606 4.666 6.594.306.108.646.061.911-.126.266-.188.423-.493.423-.817v-5.237l1-1 1 1v5.237c0 .325.157.629.423.816.171.121.373.184.577.184.112 0 .226-.019.334-.057 2.791-.989 4.666-3.639 4.666-6.595 0-2.713-1.581-5.17-4-6.318zm0 10.312v-3.993c0-.265-.105-.52-.293-.707l-2-2c-.195-.195-.451-.293-.707-.293s-.512.098-.707.293l-2 2c-.188.187-.293.441-.293.706v3.993c-1.234-.928-2-2.398-2-3.993 0-2.11 1.34-4.002 3.334-4.708.399-.142.666-.519.666-.943v-14c0-.424-.267-.801-.666-.943-1.994-.706-3.334-2.598-3.334-4.708 0-1.595.766-3.065 2-3.993v3.993c0 .265.105.52.293.707l2 2c.391.391 1.023.391 1.414 0l2-2c.188-.188.293-.442.293-.707v-3.993c1.234.928 2 2.398 2 3.993 0 2.11-1.34 4.002-3.334 4.708-.399.142-.666.519-.666.943v14c0 .424.267.801.666.943 1.994.706 3.334 2.598 3.334 4.708 0 1.596-.766 3.066-2 3.994z" fill="#e1e1e1" data-original="#000000" style="user-select: auto;" class=""/></g></g></svg>
